<svg xmlns="http://www.w3.org/2000/svg" xmlns:xlink="http://www.w3.org/1999/xlink" width="550" height="540" viewBox="0 0 145.521 142.875"><defs><linearGradient xlink:href="#a" id="c" x1="11.238" x2="85.436" y1="48.335" y2="48.144" gradientUnits="userSpaceOnUse"/><linearGradient id="a"><stop offset="0" style="stop-color:#000;stop-opacity:1"/><stop offset="1" style="stop-color:#666;stop-opacity:1"/></linearGradient><linearGradient xlink:href="#b" id="d" x1="100.452" x2="141.466" y1="7.435" y2="7.435" gradientUnits="userSpaceOnUse"/><linearGradient id="b" x1="0" x2="0" y1="0" y2="1"><stop offset="20%" style="stop-color:#000;stop-opacity:1"/><stop offset="100%" style="stop-color:#4d4d4d;stop-opacity:1"/></linearGradient><linearGradient xlink:href="#b" id="e" x1="100.388" x2="141.441" y1="22.147" y2="22.147" gradientUnits="userSpaceOnUse"/><clipPath id="f" clipPathUnits="userSpaceOnUse"><path d="M-2.542-1.907h56.568v26.271H-2.542z" style="opacity:1;fill:#d40000;fill-opacity:1;stroke:#d40000;stroke-width:.36687925;stroke-linecap:square;stroke-linejoin:miter;stroke-miterlimit:4;stroke-dasharray:none;stroke-opacity:1;paint-order:normal"/></clipPath></defs><g style="display:inline;opacity:.231"><g style="display:inline;fill:#fecb00;fill-opacity:1"><path d="M-10.96 6.237c-4.319 1-8.69 2.088-12.838 3.608l-3.191 19.306-3.86 24.997c4.847.345 10 .05 14.963.147H9.085C8.5 48.64 7.367 42.774 6.583 37.035L2.295 10.133-10.96 6.236z" style="fill:#fff;fill-opacity:1;stroke:#000" transform="rotate(-120 36.19 48.142) scale(.78121)"/></g><g style="display:inline" transform="matrix(-.2913 -.50456 .50456 -.2913 66.22 246.93)"><g style="stroke:#000;stroke-width:1.20000005;stroke-miterlimit:4;stroke-dasharray:none"><path d="M89.878 104.459c71.228 71.229 31.757 135.82 52.51 165.378 28.87 49.947 71.082 59.605 129.342 59.37a65.84 65.84 0 0 0 3.413-.105c1.143.065 2.28.1 3.413.104 58.26.236 100.472-9.422 129.342-59.369 20.753-29.557-18.718-94.15 52.51-165.378-11.605-5.015-42.725 25.605-62.898 25.525-25.612-15.171-47.031 3.08-52.25 16.777 37.838-11.301 70.078 121.468-45.539 137.914-7.067 1.97-16.164 2.514-24.578 2.72-8.414-.206-17.511-.75-24.578-2.72-115.617-16.446-83.377-149.215-45.538-137.914-5.22-13.698-26.64-31.948-52.251-16.777-20.173.08-51.293-30.54-62.898-25.525z" style="fill:#fff;stroke:#000;stroke-width:8.05593872;stroke-linecap:butt;stroke-linejoin:miter;stroke-miterlimit:4;stroke-dasharray:none;stroke-opacity:1" transform="matrix(.06853 0 0 .08094 225.709 60.013)"/><path d="M141.488 275.714c-45.126-28.295-80.012-25.181-108.804-20.805L3.205 306.581c41.944-36.203 152.117 6.577 144.443 111.867 7.77-26.63 28.133-63.418 39.832-101.833m220.385-40.901c45.126-28.295 80.012-25.181 108.803-20.805l29.48 51.672c-41.944-36.203-152.118 6.577-144.443 111.867-7.77-26.63-28.133-63.418-39.832-101.833" style="fill:#000;stroke:#000;stroke-width:16.11187744;stroke-linecap:butt;stroke-linejoin:miter;stroke-miterlimit:4;stroke-dasharray:none;stroke-opacity:1" transform="matrix(.06853 0 0 .08094 225.73 59.991)"/><path d="m128.121 339.223-29.443 64.098c-3.406-2.033 6.609 9.49-6.592 1.008-14.055 23.338-19.002 29.833-33.969 54.715 21.968 17.086 24.659 18.31 46.106 25.56 13.293-25.846 25.739-42.373 44.639-83.918m270.022-61.463 29.443 64.098c3.407-2.033-6.608 9.49 6.593 1.008 14.054 23.338 19.002 29.833 33.968 54.715-21.968 17.086-24.658 18.31-46.106 25.56-13.292-25.846-25.738-42.373-44.638-83.918" style="fill:#000;stroke:#000;stroke-width:16.11187744;stroke-linecap:butt;stroke-linejoin:miter;stroke-miterlimit:4;stroke-dasharray:none;stroke-opacity:1" transform="matrix(.06853 0 0 .08094 225.709 60.013)"/><path d="M273.604 150.864c7.363 3.092 14.48 3.19 21.328 0l-4.023-11.781c-5.552 2.375-8.767 2.099-13.5.437z" style="fill:#000;stroke:#000;stroke-width:1.20000005;stroke-linecap:butt;stroke-linejoin:miter;stroke-miterlimit:4;stroke-dasharray:none;stroke-opacity:1" transform="translate(-39.725 -53.576)"/><path d="M277.188 142.28c4.81 1.655 8.506 2.056 13.826-.031" style="fill:none;stroke:#fff;stroke-width:1.20000005;stroke-linecap:butt;stroke-linejoin:miter;stroke-miterlimit:4;stroke-dasharray:none;stroke-opacity:1" transform="translate(-39.725 -53.576)"/></g><path d="M305.232 89.29c2.11 3.522 1.59 3.631 1.985 5.204m18.987-5.204c-2.11 3.522-1.59 3.631-1.985 5.204" style="fill:none;stroke:#fff;stroke-width:.69999999;stroke-linecap:butt;stroke-linejoin:miter;stroke-miterlimit:4;stroke-dasharray:none;stroke-opacity:1" transform="translate(-71.19 -1.25)"/><path d="m305.594 98.6 4.202-11.855m11.863-.05 4.06 12.203" style="fill:none;stroke:#fff;stroke-width:1px;stroke-linecap:butt;stroke-linejoin:miter;stroke-opacity:1" transform="translate(-71.19 -1.25)"/><path d="M304.323 90.316c2.375 2.02 2.256 1.307 3.27 2.527m21.906-2.527c-2.375 2.02-2.256 1.307-3.27 2.527" style="fill:none;stroke:#fff;stroke-width:.69999999;stroke-linecap:butt;stroke-linejoin:miter;stroke-miterlimit:4;stroke-dasharray:none;stroke-opacity:1" transform="translate(-72.44 2.312)"/><path d="M239.024 80.489c3.438-2.881 8.3-2.42 11.037.134-2.365 3.351-9.494 2.307-11.037-.134z" style="fill:#000;stroke:#000;stroke-width:1px;stroke-linecap:butt;stroke-linejoin:miter;stroke-opacity:1"/><ellipse cx="244.601" cy="79.253" rx="3.947" ry="3.818" style="opacity:1;fill:#fff;fill-opacity:1;stroke:#000;stroke-width:.60433382;stroke-linecap:butt;stroke-linejoin:miter;stroke-miterlimit:4;stroke-dasharray:none;stroke-opacity:1;paint-order:normal"/><path d="m240.019 99.645-1.37 4.684-.575-.132-.928 2.872c4.644 1.953 10.662 1.844 14.496 0l-.928-2.872-.575.132-1.37-4.684" style="fill:#000;stroke:#000;stroke-width:1px;stroke-linecap:butt;stroke-linejoin:miter;stroke-opacity:1"/><path d="M239.875 99.85c3.262.72 6.238.677 9 .063M238.687 103.85c3.262.72 8.551.802 11.313.188" style="fill:none;stroke:#fff;stroke-width:.69999999;stroke-linecap:butt;stroke-linejoin:miter;stroke-miterlimit:4;stroke-dasharray:none;stroke-opacity:1"/></g></g><g style="opacity:.23200001"><g style="display:inline" transform="scale(-.41898) rotate(30 548.516 -532.999)"><circle cx="45.381" cy="48.335" r="40.792" style="color:#000;display:inline;overflow:visible;visibility:visible;opacity:1;fill:#fff;fill-opacity:1;fill-rule:nonzero;stroke:#000;stroke-width:1.2629993;stroke-linecap:round;stroke-linejoin:miter;stroke-miterlimit:10;stroke-dasharray:none;stroke-dashoffset:0;stroke-opacity:.48743723;marker:none;enable-background:accumulate"/><circle cx="45.381" cy="48.335" r="32.644" style="color:#000;display:inline;overflow:visible;visibility:visible;opacity:1;fill:none;fill-opacity:1;fill-rule:nonzero;stroke:url(#c);stroke-width:3;stroke-linecap:round;stroke-linejoin:miter;stroke-miterlimit:10;stroke-dasharray:none;stroke-dashoffset:0;stroke-opacity:1;marker:none;enable-background:accumulate"/></g><g style="display:inline"><g style="opacity:1"><path d="m125.666-2.121-3.2 5-.6 2.1a9.398 9.398 0 0 0 .6 4l-.2 2.1c-1.098 3.098-2.36 6.067-2.6 9.5.125.773.404 1.444 1.3 1.7 11.23-.424 16.83-5.233 20.3-11.7l.2-2.1c-2.107-8.893-8.151-13.45-16.2-15.8-4.4-.532-7.597 1.381-10.2 4.5-2.593 2.64-4.396 5.944-5.3 10-.896 1.649-1.644 1.94-2.4 2.3-2.29-.64-3.039-1.626-2.5-2.9.353-1.81 3.488-3.35 5.5-5 1.598-2.649 2.346-5.195-.6-7.3-8.758-2.052-7.058 4.706-5.2 6.2 1.24-.546 2.002-1.223 2.4-2-.26-.436-.982-.816 0-1.4.539.046.82.285 1 .6 0 1 .504 1.145-3.6 4-2.418 1.16-2.593 2.989-3.5 4.6-1.668 8.737 1.95 11.358 6.5 12.9.865-.721 1.12-1.741 1.5-2.7 1.296.281 2.515.385 4.3 1.8l1.3-1.2 1.1.5-.9.5a7.491 7.491 0 0 1-2.5 2.2l2.4.3c1.087-.404 1.933-1.017 2.7-1.7l1.3-.4c1.214-2.972 2.391-5.952 2.9-9.1-.08-.985-.102-1.77-.7-4.5l.7-2.3z" style="fill:url(#d);fill-opacity:1;stroke:none;stroke-width:1px;stroke-linecap:butt;stroke-linejoin:miter;stroke-opacity:1" transform="rotate(-150 83.546 59.695) scale(.51539)"/><path d="M109.566 17.579c-1.328 4.066-4.05 6.322-6.6 8.8-.206.304.146.397 1 .3 3.905-1.864 6.86-4.36 8.1-8-.786-.413-1.312-1.084-2.5-1.1z" style="fill:url(#e);fill-opacity:1;stroke:none;stroke-width:1px;stroke-linecap:butt;stroke-linejoin:miter;stroke-opacity:1" transform="rotate(-150 83.546 59.695) scale(.51539)"/></g><path d="M65.734 29.165c-1.81 6.713 1.017 9.642 5.4 11.3l.5-.8c-7.713-3.787-5.204-7.063-5.9-10.5zM87.334 33.465l-2.4 9c-.045.935.222 1.18.5 1.4 1.788.283 3.082-.031 4-.8h-3.2c-1.3-.6.5-5 1.1-9.6z" style="fill:#fff;stroke:none;stroke-width:1px;stroke-linecap:butt;stroke-linejoin:miter;stroke-opacity:1" transform="rotate(-150 72.713 63.085) scale(.51539)"/><path d="M79.634 28.565c-.682-.253-.87.287-1.2.6.062.386-.13.56.6 1.5.635.222 1.422.05 2.2-.1.843.145 1.304.481 1.8.8-.063-.684-.451-1.227-1-1.7z" style="fill:#fff;fill-opacity:1;stroke:none;stroke-width:1px;stroke-linecap:butt;stroke-linejoin:miter;stroke-opacity:1" transform="rotate(-150 72.713 63.085) scale(.51539)"/><path d="M80.034 27.365c-.822.1-1.344.436-1.7.9.32-.01.655-.027 1.1-.1.812-.717 1.308-.282 1.9-.2a4.965 4.965 0 0 0-1.3-.6z" style="fill:#fff;stroke:none;stroke-width:1.00157475;stroke-linecap:butt;stroke-linejoin:miter;stroke-miterlimit:4;stroke-dasharray:none;stroke-opacity:1" transform="rotate(-150 72.713 63.085) scale(.51539)"/></g></g><g style="opacity:.253;stroke-width:1.42454326;stroke-miterlimit:4;stroke-dasharray:none"><g style="stroke-width:1.42454326;stroke-miterlimit:4;stroke-dasharray:none" transform="matrix(-.93843 0 0 .9044 160.054 -9.94)"><path d="M101.652 69.86c-8.736.057-14.117.149-22.789.191.035-1.961.626-3.923 1.717-5.884-3.66-5.976-2.711-9.47.66-11.873 1.644-2.511 3.092-5.155 5.416-8.465 2.409-1.73 5.369-3.275 7.001-5.265 1-2.012.536-3.262-1.453-3.717-4.93.392-2.587 4.337-3.038 6.917-8.157 5.908-11.376-.893-11.095-3.304.866-.425 1.436.424 2.323.893.745-.45 1.324-.6 2.036-.583 1.279.765 1 1.25 1.395 2.187-1.172-6.739.452-11.147 9.568-11.685 5.781.546 8.56 3.547 9.238 8.666-.79.516-1.624.996-1.71 1.658.12 2.165-1.042 4.455-1.848 6.71l.839.504-.187 1.288c-.15.35-1.014-.404-1.282-.073-.333.41-.55 2.11-.48 2.41 1.066-2.768 3.624-3.865 6.129-5.574 1.132-1.313 2.688-2.395 2.729-1.721-.383 1.953-1.154 5.034-2.687 8.156.127 2.953.74 5.568.222 8.432-.733 4.05-2.877 5.204-2.704 10.133z" style="fill:#fff;fill-opacity:1;stroke:#1f1a17;stroke-width:1.73954606;stroke-linecap:butt;stroke-linejoin:miter;stroke-miterlimit:4;stroke-dasharray:none;stroke-opacity:1"/><path d="M95.674 48.092c1.042 4.233 2.16 4.761 3.672 5.143 6.829-9.427 6.557-15.722 4.454-17.881-2.084 3.654-4.073 9.989-8.126 12.738z" style="fill:#fff;fill-opacity:1;stroke:#1f1a17;stroke-width:1.73954606;stroke-linecap:butt;stroke-linejoin:miter;stroke-miterlimit:4;stroke-dasharray:none;stroke-opacity:1"/><ellipse cx="87.397" cy="49.459" rx=".743" ry="1.433" style="opacity:1;fill:#1f1a17;fill-opacity:1;stroke:#1f1a17;stroke-width:1.42454326;stroke-linecap:square;stroke-linejoin:bevel;stroke-miterlimit:4;stroke-dasharray:none;stroke-opacity:1;paint-order:normal"/><path d="M80.758 56.75c-1.78 3.163-4.348 6.291-4.821 12.443 5.742-2.051 13.154 1.1 17.237-.135-2.502-4.038-1.209-3.909-2.19-8.985" style="fill:#fff;fill-opacity:1;stroke:#1f1a17;stroke-width:1.73954606;stroke-linecap:butt;stroke-linejoin:miter;stroke-miterlimit:4;stroke-dasharray:none;stroke-opacity:1"/></g></g><g style="opacity:.24800002"><g clip-path="url(#f)" transform="matrix(.56094 -.5625 -.56334 -.56179 44.309 81.778)"><path d="M28.408 9.22h4.216V5.825h6.796v9.295l-5.5 4.243V31.22l4.22 4.221v5.08h3.789v5.929H8.07v-5.929h3.794v-5.08l4.246-4.221V19.363l-5.508-4.243V5.825h6.774V9.22h4.242V5.825h6.79z" style="fill:#1f1a17"/><path d="m33.07 17.678 3.15-2.557H13.8l3.175 2.557h16.1m7.197 24.528H9.758v2.557h30.514v-2.557m-3.844-5.05H13.602v3.37h22.826v-3.37m-4.216-17.788H17.819V31.23h14.393V19.368m5.503-5.927V7.514H34.32v3.395h-7.645V7.514h-3.344v3.395h-7.62V7.514h-3.395v5.927h25.4m-1.913 22-2.548-2.532H16.804l-2.599 2.532h21.598" style="fill:#fff"/></g><path d="M116.614 172.5c2.064.135 3.971.667 5.737 1.608a15.043 15.043 0 0 1 4.493 3.59c.867 1.024 1.681 2.264 2.448 3.712a22.839 22.839 0 0 1 1.843 4.593c.524 1.887.861 3.86.995 5.935a84.61 84.61 0 0 1 .21 5.752v4.297H108.103c-.12 0-.175-.323-.168-.963.006-.647.047-1.166.128-1.563.046-.316.174-.76.37-1.34.202-.58.524-1.28.989-2.108.208-.424.706-1.038 1.493-1.846.794-.808 1.695-1.751 2.724-2.816.592-.606 1.05-1.367 1.386-2.29.336-.916.477-1.751.423-2.506a6.604 6.604 0 0 1-1.597.97c-2.784.996-4.806 2.444-6.046 4.337-.094.12-.39.653-.888 1.607-.262.499-.49.842-.673 1.024-.248.249-.612.39-1.083.418-.733.033-1.305-.317-1.715-1.071-.55.161-1.042.229-1.48.202-.733-.276-1.264-.573-1.596-.89-.673-.673-1.104-1.34-1.312-2.014a7.515 7.515 0 0 1-.302-2.169c0-1.105.679-2.566 2.05-4.385 1.605-2.088 2.455-3.684 2.556-4.774 0-.471.047-1.004.142-1.599.08-.411.242-.803.49-1.185.175-.263.29-.445.344-.539a4.01 4.01 0 0 1 .33-.444c.114-.162.215-.284.296-.364.074-.088.174-.202.296-.35.141-.169.323-.364.551-.593-.699-1.92-.982-3.9-.847-5.934 2.61.93 4.806 2.395 6.577 4.399.437-1.489 1.292-2.695 2.563-3.61 1.05.734 1.883 1.71 2.502 2.916" style="fill:#1f1a17;stroke-width:.79498631" transform="rotate(-45.079 -89.984 216.813)"/><path d="M129.956 200.583c-.013 0 0-.357.033-1.07.04-.721.06-1.496.06-2.325.014-1.643.014-3.341 0-5.098a21.383 21.383 0 0 0-.705-5.262c-.45-1.684-.942-3.118-1.48-4.311s-1.124-2.216-1.756-3.085c-.941-1.421-2.233-2.627-3.86-3.61-1.628-.991-3.33-1.637-5.105-1.94.12.647.174 1.28.16 1.9-.026.471-.248.707-.672.707-.485 0-.7-.236-.652-.707.04-1.738-.579-3.227-1.85-4.46-.995 1.051-1.54 2.27-1.614 3.665-.027.464-.262.667-.712.613-.417-.013-.625-.256-.625-.727 0 0 .013-.054.033-.161a10.49 10.49 0 0 0-1.695.734c-.377.262-.687.195-.922-.196-.235-.397-.134-.707.316-.93l1.279-.652a14.005 14.005 0 0 0-3.861-2.802c.155 1.832.66 3.556 1.5 5.193.221.337.168.64-.162.903-.37.29-.679.25-.927-.134a7.32 7.32 0 0 1-.39-.714c-.276.276-.464.485-.552.613-.094.12-.256.384-.484.788a9.99 9.99 0 0 0-.505 1.01c-.114.33-.168.593-.148.804.02.202.04.424.054.68a6.022 6.022 0 0 1-.802 2.19c-.417.68-.941 1.515-1.587 2.506-.619.943-1.09 1.657-1.419 2.128-.33.478-.578 1.078-.747 1.819-.12.445-.12.99 0 1.624.115.64.377 1.138.767 1.495.605.613 1.19.896 1.756.85.182 0 .43-.075.74-.223.308-.141.544-.417.719-.828.336-.748.619-1.125.848-1.125.322 0 .504.189.531.552 0 .081-.108.412-.316.99-.12.263-.276.54-.471.829-.256.344-.363.485-.336.431.208.754.558.882 1.042.397.141-.141.309-.418.49-.808.19-.397.478-.93.868-1.6.464-.78.955-1.408 1.48-1.9.525-.484.99-.881 1.4-1.178.234-.175.524-.371.867-.593.343-.23.802-.458 1.379-.694.457-.182.968-.41 1.527-.68a5.502 5.502 0 0 0 1.486-1.037c.605-.593 1.07-1.32 1.399-2.19.175-.485.235-1.084.194-1.799-.114-.444.108-.666.673-.666.424 0 .66.215.714.653a7.024 7.024 0 0 1-1.265 4.061c.276.842.35 1.765.215 2.762-.114.803-.397 1.663-.834 2.58-.444.91-1.331 1.927-2.67 3.045-2.724 2.263-4.011 4.593-3.86 6.985H129.953m-26.721-11.998c-.384.236-.612.553-.693.95.014.432-.188.667-.605.708-.464.054-.7-.142-.713-.593.054-.869.436-1.556 1.163-2.068.344-.276.66-.256.949.074.289.357.256.667-.101.93m5.851-9.41c.169.262.236.538.196.827-.128.842-.6 1.193-1.4 1.065a1.272 1.272 0 0 1-.571-.236c-.047.06-.128.209-.235.432-.142.424-.417.565-.827.437-.404-.161-.565-.458-.471-.89.592-1.515 1.66-2.552 3.21-3.118.45-.134.746 0 .887.39.161.425.04.715-.356.87-.074.04-.148.08-.216.108-.067.033-.134.074-.215.114" style="fill:#fff;stroke-width:.79498631" transform="rotate(-45.079 -89.984 216.813)"/></g><g style="opacity:.25" transform="rotate(45 369.328 150.426)"><path d="m117.375 241.978 4.036 3.094-2.018 1.614.673 1.48 5.314 2.153 3.296 1.816 2.488 2.421 1.077 1.884.672 2.623-.47 2.556-1.48 3.498-1.547 2.421-3.565 3.835-5.516 4.237 9.013.202-.201 4.254-23.745.455.067-4.843 8.88-.135-3.767-2.556-3.095-3.094-2.287-2.624-2.152-3.296-1.144-3.363-.134-2.085.942-2.556 1.278-1.883 2.757-2.355 2.96-1.48 3.027-1.278 1.614-.47.404-.27.605-1.412-2.018-1.95z" style="display:inline;fill:#fffbd6;fill-opacity:1;fill-rule:evenodd;stroke:#000;stroke-width:.14513187px;stroke-linecap:butt;stroke-linejoin:miter;stroke-opacity:1"/><path d="m117.274 242.02 4.036 3.094-2.018 1.614.672 1.48 5.314 2.153 3.296 1.816 2.49 2.421 1.075 1.884.673 2.623-.47 2.556-1.48 3.498-1.548 2.421-3.565 3.834-5.515 4.238 9.013.202-.202 4.253-23.744.455.067-4.843 8.879-.134-3.767-2.556-3.094-3.094-2.287-2.624-2.152-3.296-1.144-3.363-.134-2.085.941-2.556 1.278-1.884 2.758-2.354 2.96-1.48 3.027-1.278 1.614-.47.404-.27.605-1.412-2.018-1.95z" style="display:inline;fill:#fff;fill-opacity:1;fill-rule:evenodd;stroke:#000;stroke-width:.14513187px;stroke-linecap:butt;stroke-linejoin:miter;stroke-opacity:1"/><rect id="g" width="13.789" height="6.256" x="109.371" y="247.964" ry="1.079" style="display:inline;opacity:.24800002;fill:none;fill-opacity:0;fill-rule:evenodd;stroke:#b50000;stroke-width:3.04776931;stroke-miterlimit:4;stroke-dasharray:none;stroke-opacity:0"/><use xlink:href="#g" width="100%" height="100%" style="display:inline;opacity:1;fill:none" transform="translate(-9.42 -6.08)"/><use xlink:href="#g" width="100%" height="100%" style="display:inline;opacity:1;fill:none" transform="translate(-7.929 -3.385)"/><use xlink:href="#g" width="100%" height="100%" style="display:inline;opacity:1;fill:none" transform="translate(-7.674 -3.054)"/><use xlink:href="#g" width="100%" height="100%" style="display:inline;opacity:1;fill:none" transform="translate(-7.258 -3.611)"/><use xlink:href="#g" width="100%" height="100%" style="display:inline;opacity:1;fill:none" transform="translate(-6.198 -2.043)"/><use xlink:href="#g" width="100%" height="100%" style="display:inline;opacity:1;fill:none" transform="translate(-6.216 -1.146)"/><use xlink:href="#g" width="100%" height="100%" style="display:inline;opacity:1;fill:none" transform="translate(-6.37 -2.39)"/><use xlink:href="#g" width="100%" height="100%" style="display:inline;opacity:1;fill:none" transform="translate(-7.622 -2.215)"/><use xlink:href="#g" width="100%" height="100%" style="display:inline;opacity:1;fill:none" transform="translate(-6.602 -.539)"/><use xlink:href="#g" width="100%" height="100%" style="display:inline;opacity:1;fill:none" transform="translate(-7.589 .382)"/><use xlink:href="#g" width="100%" height="100%" style="display:inline;opacity:1;fill:none" transform="translate(-7.157 -.94)"/><use xlink:href="#g" width="100%" height="100%" style="display:inline;opacity:1;fill:none" transform="translate(-5.54 2.27)"/><use xlink:href="#g" width="100%" height="100%" style="display:inline;opacity:1;fill:none" transform="translate(-6.016 -.705)"/><use xlink:href="#g" width="100%" height="100%" style="display:inline;opacity:1;fill:none" transform="translate(-4.607 .995)"/><use xlink:href="#g" width="100%" height="100%" style="display:inline;opacity:1;fill:none" transform="translate(-6.163 4.386)"/><use xlink:href="#g" width="100%" height="100%" style="display:inline;opacity:1;fill:none" transform="translate(-4.838 5.278)"/><use xlink:href="#g" width="100%" height="100%" style="display:inline;opacity:1;fill:none" transform="translate(-4.307 4.908)"/><use xlink:href="#g" width="100%" height="100%" style="display:inline;opacity:1;fill:none" transform="translate(-6.219 4.371)"/><use xlink:href="#g" width="100%" height="100%" style="display:inline;opacity:1;fill:none" transform="translate(-5.357 2.05)"/><use xlink:href="#g" width="100%" height="100%" style="display:inline;opacity:1;fill:none" transform="translate(-2.794 3.046)"/><use xlink:href="#g" width="100%" height="100%" style="display:inline;opacity:1;fill:none" transform="translate(-4.916 5.759)"/><use xlink:href="#g" width="100%" height="100%" style="display:inline;opacity:1;fill:none" transform="translate(-2.929 3.935)"/><use xlink:href="#g" width="100%" height="100%" style="display:inline;opacity:1;fill:none" transform="translate(-4.384 4.928)"/><use xlink:href="#g" width="100%" height="100%" style="display:inline;opacity:1;fill:none" transform="translate(-10.448 -5.93)"/><use xlink:href="#g" width="100%" height="100%" style="display:inline;opacity:1;fill:none" transform="translate(-10.662 -4.367)"/><use xlink:href="#g" width="100%" height="100%" style="display:inline;opacity:1;fill:none" transform="translate(-8.558 -5.97)"/><use xlink:href="#g" width="100%" height="100%" style="display:inline;opacity:1;fill:none" transform="translate(-1.443 6.729)"/><use xlink:href="#g" width="100%" height="100%" style="display:inline;opacity:1;fill:none" transform="translate(-7.301 .175)"/><use xlink:href="#g" width="100%" height="100%" style="display:inline;opacity:1;fill:none" transform="translate(-6.147 -2.048)"/><use xlink:href="#g" width="100%" height="100%" style="display:inline;opacity:1;fill:none" transform="translate(-8.237 -.716)"/><use xlink:href="#g" width="100%" height="100%" style="display:inline;opacity:1;fill:none" transform="translate(-5.877 .177)"/><use xlink:href="#g" width="100%" height="100%" style="display:inline;opacity:1;fill:none" transform="translate(-6.934 2.942)"/><use xlink:href="#g" width="100%" height="100%" style="display:inline;opacity:1;fill:none" transform="translate(-7.787 1.648)"/><use xlink:href="#g" width="100%" height="100%" style="display:inline;opacity:1;fill:none" transform="translate(-6.077 2.852)"/><use xlink:href="#g" width="100%" height="100%" style="display:inline;opacity:1;fill:none" transform="translate(-6.48 2.542)"/><use xlink:href="#g" width="100%" height="100%" style="display:inline;opacity:1;fill:none" transform="translate(-1.423 3.737)"/><use xlink:href="#g" width="100%" height="100%" style="display:inline;opacity:1;fill:none" transform="translate(-1.283 6.235)"/><use xlink:href="#g" width="100%" height="100%" style="display:inline;opacity:1;fill:none" transform="translate(-2.71 5.382)"/><use xlink:href="#g" width="100%" height="100%" style="display:inline;opacity:1;fill:none" transform="translate(-3.316 3.112)"/><use xlink:href="#g" width="100%" height="100%" style="display:inline;opacity:1;fill:none" transform="translate(-.651 3.742)"/><use xlink:href="#g" width="100%" height="100%" style="display:inline;opacity:1;fill:none" transform="translate(-.07 5.244)"/><use xlink:href="#g" width="100%" height="100%" style="display:inline;opacity:1;fill:none" transform="translate(-2.128 5.634)"/><use xlink:href="#g" width="100%" height="100%" style="display:inline;opacity:1;fill:none" transform="translate(1.554 3.632)"/><use xlink:href="#g" width="100%" height="100%" style="display:inline;opacity:1;fill:none" transform="translate(1.126 1.404)"/><use xlink:href="#g" width="100%" height="100%" style="display:inline;opacity:1;fill:none" transform="translate(-.787 1.89)"/><use xlink:href="#g" width="100%" height="100%" style="display:inline;opacity:1;fill:none" transform="translate(1.996 2.814)"/><use xlink:href="#g" width="100%" height="100%" style="display:inline;opacity:1;fill:none" transform="translate(.636 .228)"/><use xlink:href="#g" width="100%" height="100%" style="display:inline;opacity:1;fill:none" transform="translate(.7 .768)"/><use xlink:href="#g" width="100%" height="100%" style="display:inline;opacity:1;fill:none" transform="translate(2.045 2.43)"/><use xlink:href="#g" width="100%" height="100%" style="display:inline;opacity:1;fill:none" transform="translate(.971 2.823)"/><use xlink:href="#g" width="100%" height="100%" style="display:inline;opacity:1;fill:none" transform="translate(1.498 1.29)"/><use xlink:href="#g" width="100%" height="100%" style="display:inline;opacity:1;fill:none" transform="translate(2.297 1.36)"/><use xlink:href="#g" width="100%" height="100%" style="display:inline;opacity:1;fill:none" transform="translate(4.46 3.26)"/><use xlink:href="#g" width="100%" height="100%" style="display:inline;opacity:1;fill:none" transform="translate(4.826 2.42)"/><use xlink:href="#g" width="100%" height="100%" style="display:inline;opacity:1;fill:none" transform="translate(6.089 .234)"/><use xlink:href="#g" width="100%" height="100%" style="display:inline;opacity:1;fill:none" transform="translate(7.358 .64)"/><use xlink:href="#g" width="100%" height="100%" style="display:inline;opacity:1;fill:none" transform="translate(6.585 .249)"/><use xlink:href="#g" width="100%" height="100%" style="display:inline;opacity:1;fill:none" transform="translate(7.828 -.92)"/><use xlink:href="#g" width="100%" height="100%" style="display:inline;opacity:1;fill:none" transform="translate(6.632 -.565)"/><use xlink:href="#g" width="100%" height="100%" style="display:inline;opacity:1;fill:none" transform="translate(.903 .315)"/><use xlink:href="#g" width="100%" height="100%" style="display:inline;opacity:1;fill:none" transform="translate(.896 3.6)"/><use xlink:href="#g" width="100%" height="100%" style="display:inline;opacity:1;fill:none" transform="translate(2.43 .564)"/><use xlink:href="#g" width="100%" height="100%" style="display:inline;opacity:1;fill:none" transform="translate(.87 1.081)"/><use xlink:href="#g" width="100%" height="100%" style="display:inline;opacity:1;fill:none" transform="translate(4.954 .596)"/><use xlink:href="#g" width="100%" height="100%" style="display:inline;opacity:1;fill:none" transform="translate(11.025 .154)"/><use xlink:href="#g" width="100%" height="100%" style="display:inline;opacity:1;fill:none" transform="translate(12.11 -2.638)"/><use xlink:href="#g" width="100%" height="100%" style="display:inline;opacity:1;fill:none" transform="translate(9.227 3.64)"/><use xlink:href="#g" width="100%" height="100%" style="display:inline;opacity:1;fill:none" transform="translate(11.87 -2.171)"/><use xlink:href="#g" width="100%" height="100%" style="display:inline;opacity:1;fill:none" transform="translate(8.05 -4.38)"/><use xlink:href="#g" width="100%" height="100%" style="display:inline;opacity:1;fill:none" transform="translate(9.296 -3.788)"/><use xlink:href="#g" width="100%" height="100%" style="display:inline;opacity:1;fill:none" transform="translate(6.503 -6.576)"/><use xlink:href="#g" width="100%" height="100%" style="display:inline;opacity:1;fill:none" transform="translate(9.82 -6.063)"/><use xlink:href="#g" width="100%" height="100%" style="display:inline;opacity:1;fill:none" transform="translate(9.704 -4.809)"/><use xlink:href="#g" width="100%" height="100%" style="display:inline;opacity:1;fill:none" transform="translate(6.521 1.1)"/><use xlink:href="#g" width="100%" height="100%" style="display:inline;opacity:1;fill:none" transform="translate(7.795 2.76)"/><use xlink:href="#g" width="100%" height="100%" style="display:inline;opacity:1;fill:none" transform="translate(7.853 .29)"/><path d="M119.191 247.695Z" style="display:inline;opacity:1;fill:none;fill-rule:evenodd;stroke:#000;stroke-width:.14513187px;stroke-linecap:butt;stroke-linejoin:miter;stroke-opacity:1"/><path d="M120.153 248.279c9.864 2.944 13.083 7.441 12.657 11.555-.517 4.98-4.555 10.49-12.575 15.866" style="display:inline;opacity:1;fill:none;fill-rule:evenodd;stroke:#000;stroke-width:.72565937;stroke-linecap:butt;stroke-linejoin:miter;stroke-miterlimit:4;stroke-dasharray:none;stroke-opacity:1"/><path d="M122.313 275.298" style="display:inline;opacity:1;fill:none;fill-rule:evenodd;stroke:#000;stroke-width:.21607256px;stroke-linecap:butt;stroke-linejoin:miter;stroke-opacity:1"/><path d="m113.203 245.035 4.19-3.084 4.1 3.138" style="display:inline;opacity:1;fill:none;fill-rule:evenodd;stroke:#000;stroke-width:.72565937;stroke-linecap:butt;stroke-linejoin:miter;stroke-miterlimit:4;stroke-dasharray:none;stroke-opacity:1"/><path d="M97.978 270.05Z" style="display:inline;opacity:1;fill:none;fill-rule:evenodd;stroke:#000;stroke-width:.14513187px;stroke-linecap:butt;stroke-linejoin:miter;stroke-opacity:1"/><path d="M114.7 248.367c-9.646 2.934-13.245 7.315-12.828 11.414.505 4.96 4.454 10.451 12.298 15.809" style="display:inline;opacity:1;fill:none;fill-rule:evenodd;stroke:#000;stroke-width:.72565937;stroke-linecap:butt;stroke-linejoin:miter;stroke-miterlimit:4;stroke-dasharray:none;stroke-opacity:1"/><path d="m113.15 244.699 2.27 2.12-.89 1.692.032.032" style="display:inline;opacity:1;fill:none;fill-rule:evenodd;stroke:#000;stroke-width:.72565937;stroke-linecap:butt;stroke-linejoin:miter;stroke-miterlimit:4;stroke-dasharray:none;stroke-opacity:1"/><rect width="23.923" height="4.646" x="105.462" y="275.724" ry=".335" style="display:inline;opacity:1;fill:none;fill-rule:evenodd;stroke:#000;stroke-width:.72565937;stroke-linecap:butt;stroke-linejoin:miter;stroke-miterlimit:4;stroke-dasharray:none;stroke-opacity:1"/><path d="M110.78 249.74h12.937M108.497 250.834h17.599M114.597 248.385l5.517.048M101.838 259.275h31.154" style="display:inline;opacity:1;fill:none;fill-rule:evenodd;stroke:#000;stroke-width:.4353956;stroke-linecap:butt;stroke-linejoin:miter;stroke-miterlimit:4;stroke-dasharray:none;stroke-opacity:1"/><path d="m121.65 244.817-2.269 1.986.89 1.692-.032.032" style="display:inline;opacity:1;fill:none;fill-rule:evenodd;stroke:#000;stroke-width:.72565937;stroke-linecap:butt;stroke-linejoin:miter;stroke-miterlimit:4;stroke-dasharray:none;stroke-opacity:1"/><path d="m105.417 277.27 23.782-.094M129.217 278.568H105.49c-.206 0 0 0 0 0M101.978 258.104l30.795-.171M108.16 270.698h18.363M109.573 272.044l15.269.067" style="display:inline;opacity:1;fill:none;fill-rule:evenodd;stroke:#000;stroke-width:.4353956;stroke-linecap:butt;stroke-linejoin:miter;stroke-miterlimit:4;stroke-dasharray:none;stroke-opacity:1"/></g><g style="opacity:.25"><path d="M122.028 258.507a64.393 64.393 0 0 0 3.304-3.595l1.778-1.778c2.301-7.388-3.267-11.124-7.082-15.402-1.46-.635-2.942-1.16-4.27-1.703.218-.925 1.007-1.131 1.031-1.473-.92-1.48-2.307-2.68-3.493-4-.289-.132-.535-.349-.984-.16-7.075 7.158-15.902 14.933-21.458 21.331-.138.16-.249.305-.295.676a32.483 32.483 0 0 0 4.16 3.78c.449-.038.876-.53 1.968-1.398 1.07.494 4.202 6.822 8.702 9.02-1.54-.352-3.104-2.026-5.272-4.13-.4.193-.379.493-.36 1.104 4.45 6.8 12 8.034 22.271-2.272zm-4.27-12.756c-.255.253-.712.304-1.477.047l-3.779-3.81c-.475-.838-.095-1.223.112-1.7 3.495-1.092 4.47 1.851 5.334 5.145a.818.818 0 0 1-.19.318zm-12.85 9.792-.358-1.437c-2.594-.33-4.613-1.066-4.357-3.414.504-.671 1.08-.558 1.64-.606.027-.882 3.217-3.17 4.898-5.316.07-.058.51-.896.372-.312-.22.922 2.577 4.238 2.521 5.112-1.584 1.976-3.84 3.178-4.715 5.973z" style="fill:#fff;stroke:#000;stroke-width:.88457465;stroke-linecap:butt;stroke-linejoin:miter;stroke-miterlimit:4;stroke-dasharray:none;stroke-opacity:1" transform="translate(-3.742 -150.485)"/><path d="M116.518 234.098c-.513-.176-.827-.02-1.168.09l-20.658 20.479c-.2.463-.059.995.027 1.516M112.476 241.104c-.559-.318-1.044-.799-1.886-.494.4-.726 1.097-1.295 1.796-1.482l.584.988" style="fill:none;stroke:#000;stroke-width:.88457465;stroke-linecap:butt;stroke-linejoin:miter;stroke-miterlimit:4;stroke-dasharray:none;stroke-opacity:1" transform="translate(-3.742 -150.485)"/><path d="M112.521 239.442c3.527-3.99 9.174 3.774 5.524 8.668-.94-.155-.704-.075-1.055-.112-1.971 8.593 3.004 8.026 5.142 8.061-3.364 1.649-10.824-3.167-4.184-10.626M109.467 242.586c2.36 3.745 5.612 7.032 4.222 12.71-4.454 6.391-8.772 5.82-13.047 2.986" style="fill:none;stroke:#000;stroke-width:.88457465;stroke-linecap:butt;stroke-linejoin:miter;stroke-miterlimit:4;stroke-dasharray:none;stroke-opacity:1" transform="translate(-3.742 -150.485)"/><path d="M101.832 250.086c-1.357-.104-1.42.28-1.639.606.328 3.486 2.644 2.819 4.357 3.414l.313 1.482c.543-1.21 1.241-2.327 2.224-3.346-2.419.462-4.637.256-5.255-2.156z" style="fill:#fff;stroke:#000;stroke-width:.88457465;stroke-linecap:butt;stroke-linejoin:miter;stroke-miterlimit:4;stroke-dasharray:none;stroke-opacity:1" transform="translate(-3.742 -150.485)"/><path d="m101.832 250.086-1.639.606c.291 2.353 1.802 3.43 4.357 3.414l.359 1.437 2.178-3.301" style="fill:none;stroke:#000;stroke-width:.11057183px;stroke-linecap:butt;stroke-linejoin:miter;stroke-opacity:1" transform="translate(-3.742 -150.485)"/></g></svg>